<svg width="40" height="35" viewBox="0 0 40 35" fill="none" xmlns="http://www.w3.org/2000/svg">
  <path d="M2.57218 35C3.99275 35 5.14436 33.8641 5.14436 32.463C5.14436 31.0619 3.99275 29.926 2.57218 29.926C1.1516 29.926 0 31.0619 0 32.463C0 33.8641 1.1516 35 2.57218 35Z" fill="white"/>
  <path d="M34.8031 14.7041C32.4409 11.6494 27.4016 5.17751 25.2756 2.30399C22.4672 -1.50148 22.126 0.284758 21.5223 1.39792C20.5512 8.28402 27.0604 13.4098 30.4199 15.5584C29.58 16.7493 29.2913 18.5614 29.2913 20.2958C29.2913 23.2211 31.6798 25.5769 34.6457 25.5769C37.6115 25.5769 40.0525 25.1109 40.0525 22.1856C40 19.8299 37.3753 16.0503 34.8031 14.7041Z" fill="white"/>
  <path d="M35.9843 33.7574C34.7769 31.9711 33.5696 30.2108 32.3622 28.4504C29.6588 24.4896 27.0604 20.4512 24.2257 16.5939C20.8399 11.9859 15.0131 10.588 9.94751 12.892C4.98688 15.1701 2.30971 20.6065 3.49082 25.9135C4.64567 31.1169 9.37008 34.7929 14.9606 34.8188C18.6614 34.8706 16.6667 34.8447 18.6089 34.8447V28.6575C18.4514 28.6317 18.2677 28.6058 18.084 28.6058C16.8242 28.6317 15.5381 28.6317 14.2782 28.5281C11.8373 28.3469 9.89502 26.4053 9.52756 23.8425C9.2126 21.6161 10.7612 19.2086 13.0184 18.3543C15.3281 17.5 17.7428 18.2248 19.1076 20.2182C21.706 23.9978 24.3045 27.8033 26.9291 31.6087C26.9291 31.6087 29.2126 34.8188 32.2572 34.7929C33.6483 34.7929 35.0394 34.7929 36.4567 34.7929C36.4829 34.301 36.1942 34.0422 35.9843 33.7574Z" fill="white"/>
</svg>
